<svg xmlns="http://www.w3.org/2000/svg" xmlns:xlink="http://www.w3.org/1999/xlink" contentStyleType="text/css" height="572px" preserveAspectRatio="none" style="width:1567px;height:572px;background:#FFFFFF;" version="1.1" viewBox="0 0 1567 572" width="1567px" zoomAndPan="magnify"><defs/><g><!--cluster ????--><g id="cluster_&#36024;&#20986;&#31649;&#29702;"><path d="M8.5,6 L65.4998,6 A3.75,3.75 0 0 1 67.9998,8.5 L74.9998,28.2969 L860.5,28.2969 A2.5,2.5 0 0 1 863,30.7969 L863,562.66 A2.5,2.5 0 0 1 860.5,565.16 L8.5,565.16 A2.5,2.5 0 0 1 6,562.66 L6,8.5 A2.5,2.5 0 0 1 8.5,6 " fill="none" style="stroke:#000000;stroke-width:1.5;"/><line style="stroke:#000000;stroke-width:1.5;" x1="6" x2="74.9998" y1="28.2969" y2="28.2969"/><text fill="#000000" font-family="sans-serif" font-size="14" font-weight="bold" lengthAdjust="spacing" textLength="55.9998" x="10" y="20.9951">&#36024;&#20986;&#31649;&#29702;</text></g><!--cluster ????--><g id="cluster_&#26360;&#31821;&#31649;&#29702;"><path d="M905.5,195.49 L962.4998,195.49 A3.75,3.75 0 0 1 964.9998,197.99 L971.9998,217.7869 L1557.5,217.7869 A2.5,2.5 0 0 1 1560,220.2869 L1560,562.66 A2.5,2.5 0 0 1 1557.5,565.16 L905.5,565.16 A2.5,2.5 0 0 1 903,562.66 L903,197.99 A2.5,2.5 0 0 1 905.5,195.49 " fill="none" style="stroke:#000000;stroke-width:1.5;"/><line style="stroke:#000000;stroke-width:1.5;" x1="903" x2="971.9998" y1="217.7869" y2="217.7869"/><text fill="#000000" font-family="sans-serif" font-size="14" font-weight="bold" lengthAdjust="spacing" textLength="55.9998" x="907" y="210.4851">&#26360;&#31821;&#31649;&#29702;</text></g><!--class BookStock--><g id="elem_BookStock"><rect codeLine="3" fill="#F1F1F1" height="113.1875" id="BookStock" rx="2.5" ry="2.5" style="stroke:#181818;stroke-width:0.5;" width="213.9473" x="525.03" y="49"/><ellipse cx="590.9592" cy="65" fill="#ADD1B2" rx="11" ry="11" style="stroke:#181818;stroke-width:1.0;"/><path d="M595.0686,71 L587.3498,71 L587.3498,58.6094 L595.0686,58.6094 L595.0686,60.7656 L589.8029,60.7656 L589.8029,63.4375 L594.5686,63.4375 L594.5686,65.5938 L589.8029,65.5938 L589.8029,68.8438 L595.0686,68.8438 L595.0686,71 Z " fill="#000000"/><text fill="#000000" font-family="sans-serif" font-size="14" lengthAdjust="spacing" textLength="73.5889" x="611.4592" y="69.8467">BookStock</text><line style="stroke:#181818;stroke-width:0.5;" x1="526.03" x2="737.9773" y1="81" y2="81"/><ellipse cx="536.03" cy="94.6484" fill="#000000" rx="3" ry="3" style="stroke:#000000;stroke-width:1.0;"/><text fill="#000000" font-family="sans-serif" font-size="14" lengthAdjust="spacing" textLength="12.7764" x="545.03" y="97.9951">id</text><line style="stroke:#181818;stroke-width:1.0;" x1="526.03" x2="737.9773" y1="105.2969" y2="105.2969"/><ellipse cx="536.03" cy="118.9453" fill="#000000" rx="3" ry="3" style="stroke:#000000;stroke-width:1.0;"/><text fill="#000000" font-family="sans-serif" font-size="14" lengthAdjust="spacing" textLength="154.2188" x="545.03" y="122.292">book_id (FK: Book(id))</text><ellipse cx="536.03" cy="135.2422" fill="#000000" rx="3" ry="3" style="stroke:#000000;stroke-width:1.0;"/><text fill="#000000" font-family="sans-serif" font-size="14" lengthAdjust="spacing" textLength="187.9473" x="545.03" y="138.5889">status (FK: BookStatus(id))</text><text fill="#000000" font-family="sans-serif" font-size="14" lengthAdjust="spacing" textLength="44.4541" x="545.03" y="154.8857">memo</text></g><!--class BookStockStatus--><g id="elem_BookStockStatus"><rect codeLine="11" fill="#F1F1F1" height="80.5938" id="BookStockStatus" rx="2.5" ry="2.5" style="stroke:#181818;stroke-width:0.5;" width="150.2002" x="556.9" y="262.93"/><ellipse cx="571.9" cy="278.93" fill="#ADD1B2" rx="11" ry="11" style="stroke:#181818;stroke-width:1.0;"/><path d="M576.0094,284.93 L568.2906,284.93 L568.2906,272.5394 L576.0094,272.5394 L576.0094,274.6956 L570.7438,274.6956 L570.7438,277.3675 L575.5094,277.3675 L575.5094,279.5237 L570.7438,279.5237 L570.7438,282.7737 L576.0094,282.7737 L576.0094,284.93 Z " fill="#000000"/><text fill="#000000" font-family="sans-serif" font-size="14" lengthAdjust="spacing" textLength="118.2002" x="585.9" y="283.7767">BookStockStatus</text><line style="stroke:#181818;stroke-width:0.5;" x1="557.9" x2="706.1002" y1="294.93" y2="294.93"/><ellipse cx="567.9" cy="308.5784" fill="#000000" rx="3" ry="3" style="stroke:#000000;stroke-width:1.0;"/><text fill="#000000" font-family="sans-serif" font-size="14" lengthAdjust="spacing" textLength="12.7764" x="576.9" y="311.9251">id</text><line style="stroke:#181818;stroke-width:1.0;" x1="557.9" x2="706.1002" y1="319.2269" y2="319.2269"/><ellipse cx="567.9" cy="332.8753" fill="#000000" rx="3" ry="3" style="stroke:#000000;stroke-width:1.0;"/><text fill="#000000" font-family="sans-serif" font-size="14" lengthAdjust="spacing" textLength="39.7031" x="576.9" y="336.222">name</text></g><g id="elem_GMN5"><path d="M433,472.58 L433,512.8456 A0,0 0 0 0 433,512.8456 L831.0003,512.8456 A0,0 0 0 0 831.0003,512.8456 L831.0003,482.58 L821.0003,472.58 L636,472.58 L632,343.99 L628,472.58 L433,472.58 A0,0 0 0 0 433,472.58 " fill="#FEFFDD" style="stroke:#181818;stroke-width:0.5;"/><path d="M821.0003,472.58 L821.0003,482.58 L831.0003,482.58 L821.0003,472.58 " fill="#FEFFDD" style="stroke:#181818;stroke-width:0.5;"/><text fill="#000000" font-family="sans-serif" font-size="13" lengthAdjust="spacing" textLength="146.5294" x="439" y="489.6469">&#36024;&#20986;&#21487;&#33021;, &#36024;&#20986;&#19981;&#21487;, &#30772;&#26820;</text><text fill="#000000" font-family="sans-serif" font-size="13" lengthAdjust="spacing" textLength="377.0003" x="439" y="504.7797">&#22259;&#26360;&#39208;&#12398;&#23455;&#21209;&#30340;&#12395;&#12399;&#12300;&#36024;&#20986;&#19981;&#21487;&#12301;&#12434;&#32048;&#20998;&#21270;&#12377;&#12409;&#12365;&#12363;&#12418;&#12375;&#12428;&#12394;&#12356;&#65311;</text></g><!--class Customer--><g id="elem_Customer"><rect codeLine="19" fill="#F1F1F1" height="96.8906" id="Customer" rx="2.5" ry="2.5" style="stroke:#181818;stroke-width:0.5;" width="126.9189" x="29.54" y="444.27"/><ellipse cx="56.6518" cy="460.27" fill="#ADD1B2" rx="11" ry="11" style="stroke:#181818;stroke-width:1.0;"/><path d="M60.7611,466.27 L53.0424,466.27 L53.0424,453.8794 L60.7611,453.8794 L60.7611,456.0356 L55.4955,456.0356 L55.4955,458.7075 L60.2611,458.7075 L60.2611,460.8638 L55.4955,460.8638 L55.4955,464.1138 L60.7611,464.1138 L60.7611,466.27 Z " fill="#000000"/><text fill="#000000" font-family="sans-serif" font-size="14" lengthAdjust="spacing" textLength="68.0039" x="73.3433" y="465.1167">Customer</text><line style="stroke:#181818;stroke-width:0.5;" x1="30.54" x2="155.4589" y1="476.27" y2="476.27"/><ellipse cx="40.54" cy="489.9184" fill="#000000" rx="3" ry="3" style="stroke:#000000;stroke-width:1.0;"/><text fill="#000000" font-family="sans-serif" font-size="14" lengthAdjust="spacing" textLength="12.7764" x="49.54" y="493.2651">id</text><line style="stroke:#181818;stroke-width:1.0;" x1="30.54" x2="155.4589" y1="500.5669" y2="500.5669"/><ellipse cx="40.54" cy="514.2153" fill="#000000" rx="3" ry="3" style="stroke:#000000;stroke-width:1.0;"/><text fill="#000000" font-family="sans-serif" font-size="14" lengthAdjust="spacing" textLength="39.7031" x="49.54" y="517.562">name</text><ellipse cx="40.54" cy="530.5122" fill="#000000" rx="3" ry="3" style="stroke:#000000;stroke-width:1.0;"/><text fill="#000000" font-family="sans-serif" font-size="14" lengthAdjust="spacing" textLength="100.9189" x="49.54" y="533.8589">email_address</text></g><!--class Lending--><g id="elem_Lending"><rect codeLine="26" fill="#F1F1F1" height="96.8906" id="Lending" rx="2.5" ry="2.5" style="stroke:#181818;stroke-width:0.5;" width="270.3711" x="135.81" y="57.15"/><ellipse cx="238.8344" cy="73.15" fill="#ADD1B2" rx="11" ry="11" style="stroke:#181818;stroke-width:1.0;"/><path d="M242.9438,79.15 L235.225,79.15 L235.225,66.7594 L242.9438,66.7594 L242.9438,68.9156 L237.6782,68.9156 L237.6782,71.5875 L242.4438,71.5875 L242.4438,73.7437 L237.6782,73.7437 L237.6782,76.9937 L242.9438,76.9937 L242.9438,79.15 Z " fill="#000000"/><text fill="#000000" font-family="sans-serif" font-size="14" lengthAdjust="spacing" textLength="55.8223" x="259.3344" y="77.9967">Lending</text><line style="stroke:#181818;stroke-width:0.5;" x1="136.81" x2="405.1811" y1="89.15" y2="89.15"/><ellipse cx="146.81" cy="102.7984" fill="#000000" rx="3" ry="3" style="stroke:#000000;stroke-width:1.0;"/><text fill="#000000" font-family="sans-serif" font-size="14" lengthAdjust="spacing" textLength="12.7764" x="155.81" y="106.1451">id</text><line style="stroke:#181818;stroke-width:1.0;" x1="136.81" x2="405.1811" y1="113.4469" y2="113.4469"/><ellipse cx="146.81" cy="127.0953" fill="#000000" rx="3" ry="3" style="stroke:#000000;stroke-width:1.0;"/><text fill="#000000" font-family="sans-serif" font-size="14" lengthAdjust="spacing" textLength="244.3711" x="155.81" y="130.442">lending_set_id (FK: LendingSet(id))</text><ellipse cx="146.81" cy="143.3922" fill="#000000" rx="3" ry="3" style="stroke:#000000;stroke-width:1.0;"/><text fill="#000000" font-family="sans-serif" font-size="14" lengthAdjust="spacing" textLength="237.1182" x="155.81" y="146.7389">book_stock_id (FK: BookStock(id))</text></g><!--class LendingSet--><g id="elem_LendingSet"><rect codeLine="33" fill="#F1F1F1" height="162.0781" id="LendingSet" rx="2.5" ry="2.5" style="stroke:#181818;stroke-width:0.5;" width="315.3311" x="30.33" y="222.19"/><ellipse cx="144.3398" cy="238.19" fill="#ADD1B2" rx="11" ry="11" style="stroke:#181818;stroke-width:1.0;"/><path d="M148.4491,244.19 L140.7304,244.19 L140.7304,231.7994 L148.4491,231.7994 L148.4491,233.9556 L143.1835,233.9556 L143.1835,236.6275 L147.9491,236.6275 L147.9491,238.7837 L143.1835,238.7837 L143.1835,242.0337 L148.4491,242.0337 L148.4491,244.19 Z " fill="#000000"/><text fill="#000000" font-family="sans-serif" font-size="14" lengthAdjust="spacing" textLength="78.8115" x="164.8398" y="243.0367">LendingSet</text><line style="stroke:#181818;stroke-width:0.5;" x1="31.33" x2="344.6611" y1="254.19" y2="254.19"/><ellipse cx="41.33" cy="267.8384" fill="#000000" rx="3" ry="3" style="stroke:#000000;stroke-width:1.0;"/><text fill="#000000" font-family="sans-serif" font-size="14" lengthAdjust="spacing" textLength="12.7764" x="50.33" y="271.1851">id</text><line style="stroke:#181818;stroke-width:1.0;" x1="31.33" x2="344.6611" y1="278.4869" y2="278.4869"/><ellipse cx="41.33" cy="292.1353" fill="#000000" rx="3" ry="3" style="stroke:#000000;stroke-width:1.0;"/><text fill="#000000" font-family="sans-serif" font-size="14" lengthAdjust="spacing" textLength="219.1807" x="50.33" y="295.482">customer_id (FK: Customer(id))</text><ellipse cx="41.33" cy="308.4322" fill="#000000" rx="3" ry="3" style="stroke:#000000;stroke-width:1.0;"/><text fill="#000000" font-family="sans-serif" font-size="14" lengthAdjust="spacing" textLength="289.3311" x="50.33" y="311.7789">LendingSetStatus (FK: LendingStatus(id))</text><ellipse cx="41.33" cy="324.7291" fill="#000000" rx="3" ry="3" style="stroke:#000000;stroke-width:1.0;"/><text fill="#000000" font-family="sans-serif" font-size="14" lengthAdjust="spacing" textLength="108.4385" x="50.33" y="328.0757">lend_start_date</text><ellipse cx="41.33" cy="341.0259" fill="#000000" rx="3" ry="3" style="stroke:#000000;stroke-width:1.0;"/><text fill="#000000" font-family="sans-serif" font-size="14" lengthAdjust="spacing" textLength="149.1602" x="50.33" y="344.3726">return_deadline_date</text><text fill="#000000" font-family="sans-serif" font-size="14" lengthAdjust="spacing" textLength="81.9287" x="50.33" y="360.6695">return_date</text><text fill="#000000" font-family="sans-serif" font-size="14" lengthAdjust="spacing" textLength="44.4541" x="50.33" y="376.9664">memo</text></g><!--class LendingStatus--><g id="elem_LendingStatus"><rect codeLine="44" fill="#F1F1F1" height="80.5938" id="LendingStatus" rx="2.5" ry="2.5" style="stroke:#181818;stroke-width:0.5;" width="132.4336" x="380.78" y="262.93"/><ellipse cx="395.78" cy="278.93" fill="#ADD1B2" rx="11" ry="11" style="stroke:#181818;stroke-width:1.0;"/><path d="M399.8894,284.93 L392.1706,284.93 L392.1706,272.5394 L399.8894,272.5394 L399.8894,274.6956 L394.6238,274.6956 L394.6238,277.3675 L399.3894,277.3675 L399.3894,279.5237 L394.6238,279.5237 L394.6238,282.7737 L399.8894,282.7737 L399.8894,284.93 Z " fill="#000000"/><text fill="#000000" font-family="sans-serif" font-size="14" lengthAdjust="spacing" textLength="100.4336" x="409.78" y="283.7767">LendingStatus</text><line style="stroke:#181818;stroke-width:0.5;" x1="381.78" x2="512.2136" y1="294.93" y2="294.93"/><ellipse cx="391.78" cy="308.5784" fill="#000000" rx="3" ry="3" style="stroke:#000000;stroke-width:1.0;"/><text fill="#000000" font-family="sans-serif" font-size="14" lengthAdjust="spacing" textLength="12.7764" x="400.78" y="311.9251">id</text><line style="stroke:#181818;stroke-width:1.0;" x1="381.78" x2="512.2136" y1="319.2269" y2="319.2269"/><ellipse cx="391.78" cy="332.8753" fill="#000000" rx="3" ry="3" style="stroke:#000000;stroke-width:1.0;"/><text fill="#000000" font-family="sans-serif" font-size="14" lengthAdjust="spacing" textLength="39.7031" x="400.78" y="336.222">name</text></g><g id="elem_GMN12"><path d="M191.74,480.15 L191.74,505.2828 A0,0 0 0 0 191.74,505.2828 L398.2695,505.2828 A0,0 0 0 0 398.2695,505.2828 L398.2695,490.15 L388.2695,480.15 L308.68,480.15 L414.76,343.99 L300.68,480.15 L191.74,480.15 A0,0 0 0 0 191.74,480.15 " fill="#FEFFDD" style="stroke:#181818;stroke-width:0.5;"/><path d="M388.2695,480.15 L388.2695,490.15 L398.2695,490.15 L388.2695,480.15 " fill="#FEFFDD" style="stroke:#181818;stroke-width:0.5;"/><text fill="#000000" font-family="sans-serif" font-size="13" lengthAdjust="spacing" textLength="185.5295" x="197.74" y="497.2169">&#36024;&#20986;&#20013;, &#36024;&#20986;&#26399;&#38480;&#36229;&#36942;, &#36820;&#21364;&#28168;&#12415;</text></g><!--class NdcCategory--><g id="elem_NdcCategory"><rect codeLine="56" fill="#F1F1F1" height="96.8906" id="NdcCategory" rx="2.5" ry="2.5" style="stroke:#181818;stroke-width:0.5;" width="123.0068" x="985.5" y="444.27"/><ellipse cx="1000.5" cy="460.27" fill="#ADD1B2" rx="11" ry="11" style="stroke:#181818;stroke-width:1.0;"/><path d="M1004.6094,466.27 L996.8906,466.27 L996.8906,453.8794 L1004.6094,453.8794 L1004.6094,456.0356 L999.3438,456.0356 L999.3438,458.7075 L1004.1094,458.7075 L1004.1094,460.8638 L999.3438,460.8638 L999.3438,464.1138 L1004.6094,464.1138 L1004.6094,466.27 Z " fill="#000000"/><text fill="#000000" font-family="sans-serif" font-size="14" lengthAdjust="spacing" textLength="91.0068" x="1014.5" y="465.1167">NdcCategory</text><line style="stroke:#181818;stroke-width:0.5;" x1="986.5" x2="1107.5068" y1="476.27" y2="476.27"/><ellipse cx="996.5" cy="489.9184" fill="#000000" rx="3" ry="3" style="stroke:#000000;stroke-width:1.0;"/><text fill="#000000" font-family="sans-serif" font-size="14" lengthAdjust="spacing" textLength="12.7764" x="1005.5" y="493.2651">id</text><line style="stroke:#181818;stroke-width:1.0;" x1="986.5" x2="1107.5068" y1="500.5669" y2="500.5669"/><ellipse cx="996.5" cy="514.2153" fill="#000000" rx="3" ry="3" style="stroke:#000000;stroke-width:1.0;"/><text fill="#000000" font-family="sans-serif" font-size="14" lengthAdjust="spacing" textLength="39.7031" x="1005.5" y="517.562">name</text><ellipse cx="996.5" cy="530.5122" fill="#000000" rx="3" ry="3" style="stroke:#000000;stroke-width:1.0;"/><text fill="#000000" font-family="sans-serif" font-size="14" lengthAdjust="spacing" textLength="54.6396" x="1005.5" y="533.8589">number</text></g><!--class BookMaster--><g id="elem_BookMaster"><rect codeLine="63" fill="#F1F1F1" height="129.4844" id="BookMaster" rx="2.5" ry="2.5" style="stroke:#181818;stroke-width:0.5;" width="239.9033" x="927.05" y="238.49"/><ellipse cx="1001.425" cy="254.49" fill="#ADD1B2" rx="11" ry="11" style="stroke:#181818;stroke-width:1.0;"/><path d="M1005.5344,260.49 L997.8156,260.49 L997.8156,248.0994 L1005.5344,248.0994 L1005.5344,250.2556 L1000.2688,250.2556 L1000.2688,252.9275 L1005.0344,252.9275 L1005.0344,255.0837 L1000.2688,255.0837 L1000.2688,258.3337 L1005.5344,258.3337 L1005.5344,260.49 Z " fill="#000000"/><text fill="#000000" font-family="sans-serif" font-size="14" lengthAdjust="spacing" textLength="82.6533" x="1021.925" y="259.3367">BookMaster</text><line style="stroke:#181818;stroke-width:0.5;" x1="928.05" x2="1165.9533" y1="270.49" y2="270.49"/><ellipse cx="938.05" cy="284.1384" fill="#000000" rx="3" ry="3" style="stroke:#000000;stroke-width:1.0;"/><text fill="#000000" font-family="sans-serif" font-size="14" lengthAdjust="spacing" textLength="12.7764" x="947.05" y="287.4851">id</text><line style="stroke:#181818;stroke-width:1.0;" x1="928.05" x2="1165.9533" y1="294.7869" y2="294.7869"/><ellipse cx="938.05" cy="308.4353" fill="#000000" rx="3" ry="3" style="stroke:#000000;stroke-width:1.0;"/><text fill="#000000" font-family="sans-serif" font-size="14" lengthAdjust="spacing" textLength="103.4277" x="947.05" y="311.782">ISBN (UNIQUE)</text><ellipse cx="938.05" cy="324.7322" fill="#000000" rx="3" ry="3" style="stroke:#000000;stroke-width:1.0;"/><text fill="#000000" font-family="sans-serif" font-size="14" lengthAdjust="spacing" textLength="27.3711" x="947.05" y="328.0789">title</text><ellipse cx="938.05" cy="341.0291" fill="#000000" rx="3" ry="3" style="stroke:#000000;stroke-width:1.0;"/><text fill="#000000" font-family="sans-serif" font-size="14" lengthAdjust="spacing" textLength="116.0879" x="947.05" y="344.3757">publication_date</text><ellipse cx="938.05" cy="357.3259" fill="#000000" rx="3" ry="3" style="stroke:#000000;stroke-width:1.0;"/><text fill="#000000" font-family="sans-serif" font-size="14" lengthAdjust="spacing" textLength="213.9033" x="947.05" y="360.6726">category(FK: NdcCategory(id))</text></g><!--class Author--><g id="elem_Author"><rect codeLine="72" fill="#F1F1F1" height="80.5938" id="Author" rx="2.5" ry="2.5" style="stroke:#181818;stroke-width:0.5;" width="79.1338" x="1437.43" y="262.93"/><ellipse cx="1452.43" cy="278.93" fill="#ADD1B2" rx="11" ry="11" style="stroke:#181818;stroke-width:1.0;"/><path d="M1456.5394,284.93 L1448.8206,284.93 L1448.8206,272.5394 L1456.5394,272.5394 L1456.5394,274.6956 L1451.2738,274.6956 L1451.2738,277.3675 L1456.0394,277.3675 L1456.0394,279.5237 L1451.2738,279.5237 L1451.2738,282.7737 L1456.5394,282.7737 L1456.5394,284.93 Z " fill="#000000"/><text fill="#000000" font-family="sans-serif" font-size="14" lengthAdjust="spacing" textLength="47.1338" x="1466.43" y="283.7767">Author</text><line style="stroke:#181818;stroke-width:0.5;" x1="1438.43" x2="1515.5638" y1="294.93" y2="294.93"/><ellipse cx="1448.43" cy="308.5784" fill="#000000" rx="3" ry="3" style="stroke:#000000;stroke-width:1.0;"/><text fill="#000000" font-family="sans-serif" font-size="14" lengthAdjust="spacing" textLength="12.7764" x="1457.43" y="311.9251">id</text><line style="stroke:#181818;stroke-width:1.0;" x1="1438.43" x2="1515.5638" y1="319.2269" y2="319.2269"/><ellipse cx="1448.43" cy="332.8753" fill="#000000" rx="3" ry="3" style="stroke:#000000;stroke-width:1.0;"/><text fill="#000000" font-family="sans-serif" font-size="14" lengthAdjust="spacing" textLength="39.7031" x="1457.43" y="336.222">name</text></g><!--class BookAuthorRelationship--><g id="elem_BookAuthorRelationship"><rect codeLine="78" fill="#F1F1F1" height="96.8906" id="BookAuthorRelationship" rx="2.5" ry="2.5" style="stroke:#181818;stroke-width:0.5;" width="200.5469" x="1201.73" y="254.79"/><ellipse cx="1216.73" cy="270.79" fill="#ADD1B2" rx="11" ry="11" style="stroke:#181818;stroke-width:1.0;"/><path d="M1220.8394,276.79 L1213.1206,276.79 L1213.1206,264.3994 L1220.8394,264.3994 L1220.8394,266.5556 L1215.5738,266.5556 L1215.5738,269.2275 L1220.3394,269.2275 L1220.3394,271.3837 L1215.5738,271.3837 L1215.5738,274.6337 L1220.8394,274.6337 L1220.8394,276.79 Z " fill="#000000"/><text fill="#000000" font-family="sans-serif" font-size="14" lengthAdjust="spacing" textLength="168.5469" x="1230.73" y="275.6367">BookAuthorRelationship</text><line style="stroke:#181818;stroke-width:0.5;" x1="1202.73" x2="1401.2769" y1="286.79" y2="286.79"/><ellipse cx="1212.73" cy="300.4384" fill="#000000" rx="3" ry="3" style="stroke:#000000;stroke-width:1.0;"/><text fill="#000000" font-family="sans-serif" font-size="14" lengthAdjust="spacing" textLength="12.7764" x="1221.73" y="303.7851">id</text><line style="stroke:#181818;stroke-width:1.0;" x1="1202.73" x2="1401.2769" y1="311.0869" y2="311.0869"/><ellipse cx="1212.73" cy="324.7353" fill="#000000" rx="3" ry="3" style="stroke:#000000;stroke-width:1.0;"/><text fill="#000000" font-family="sans-serif" font-size="14" lengthAdjust="spacing" textLength="149.7686" x="1221.73" y="328.082">book_id (FK:Book(id))</text><ellipse cx="1212.73" cy="341.0322" fill="#000000" rx="3" ry="3" style="stroke:#000000;stroke-width:1.0;"/><text fill="#000000" font-family="sans-serif" font-size="14" lengthAdjust="spacing" textLength="174.0703" x="1221.73" y="344.3789">author_id (FK:Author(id))</text></g><!--class <?????>--><g id="elem_&lt;&#12486;&#12540;&#12502;&#12523;&#21517;&gt;"><rect codeLine="101" fill="#F1F1F1" height="96.8906" id="&lt;&#12486;&#12540;&#12502;&#12523;&#21517;&gt;" rx="2.5" ry="2.5" style="stroke:#181818;stroke-width:0.5;" width="125.4606" x="890.27" y="57.15"/><ellipse cx="905.27" cy="73.15" fill="#ADD1B2" rx="11" ry="11" style="stroke:#181818;stroke-width:1.0;"/><path d="M909.3794,79.15 L901.6606,79.15 L901.6606,66.7594 L909.3794,66.7594 L909.3794,68.9156 L904.1138,68.9156 L904.1138,71.5875 L908.8794,71.5875 L908.8794,73.7437 L904.1138,73.7437 L904.1138,76.9937 L909.3794,76.9937 L909.3794,79.15 Z " fill="#000000"/><text fill="#000000" font-family="sans-serif" font-size="14" lengthAdjust="spacing" textLength="93.4606" x="919.27" y="77.9967">&lt;&#12486;&#12540;&#12502;&#12523;&#21517;&gt;</text><line style="stroke:#181818;stroke-width:0.5;" x1="891.27" x2="1014.7306" y1="89.15" y2="89.15"/><ellipse cx="901.27" cy="102.7984" fill="#000000" rx="3" ry="3" style="stroke:#000000;stroke-width:1.0;"/><text fill="#000000" font-family="sans-serif" font-size="14" lengthAdjust="spacing" textLength="41.9998" x="910.27" y="106.1451">&#20027;&#12461;&#12540;</text><line style="stroke:#181818;stroke-width:1.0;" x1="891.27" x2="1014.7306" y1="113.4469" y2="113.4469"/><text fill="#000000" font-family="sans-serif" font-size="14" lengthAdjust="spacing" textLength="41.9998" x="910.27" y="130.442">&#12459;&#12521;&#12512;</text><ellipse cx="901.27" cy="143.3922" fill="#000000" rx="3" ry="3" style="stroke:#000000;stroke-width:1.0;"/><text fill="#000000" font-family="sans-serif" font-size="14" lengthAdjust="spacing" textLength="69.9997" x="910.27" y="146.7389">&#24517;&#38920;&#12459;&#12521;&#12512;</text></g><!--link BookMaster to BookAuthorRelationship--><g id="link_BookMaster_BookAuthorRelationship"><path codeLine="87" d="M1175.03,303.23 C1186.45,303.23 1181.88,303.23 1193.3,303.23 " fill="none" id="BookMaster-BookAuthorRelationship" style="stroke:#181818;stroke-width:1.0;"/><line style="stroke:#181818;stroke-width:1.0;" x1="1171.03" x2="1171.03" y1="307.23" y2="299.23"/><line style="stroke:#181818;stroke-width:1.0;" x1="1174.03" x2="1174.03" y1="307.23" y2="299.23"/><line style="stroke:#181818;stroke-width:1.0;" x1="1175.03" x2="1167.03" y1="303.23" y2="303.23"/><line style="stroke:#181818;stroke-width:1.0;" x1="1193.3" x2="1201.3" y1="303.23" y2="295.23"/><line style="stroke:#181818;stroke-width:1.0;" x1="1193.3" x2="1201.3" y1="303.23" y2="311.23"/><line style="stroke:#181818;stroke-width:1.0;" x1="1193.3" x2="1201.3" y1="303.23" y2="303.23"/></g><!--link BookMaster to NdcCategory--><g id="link_BookMaster_NdcCategory"><path codeLine="88" d="M1047,386.23 C1047,411.05 1047,412.98 1047,435.99 " fill="none" id="BookMaster-NdcCategory" style="stroke:#181818;stroke-width:1.0;"/><line style="stroke:#181818;stroke-width:1.0;" x1="1047" x2="1041" y1="376.23" y2="368.23"/><line style="stroke:#181818;stroke-width:1.0;" x1="1047" x2="1053" y1="376.23" y2="368.23"/><line style="stroke:#181818;stroke-width:1.0;" x1="1047" x2="1047" y1="376.23" y2="368.23"/><ellipse cx="1047" cy="382.23" fill="none" rx="4" ry="4" style="stroke:#181818;stroke-width:1.0;"/><line style="stroke:#181818;stroke-width:1.0;" x1="1051" x2="1043" y1="439.99" y2="439.99"/><line style="stroke:#181818;stroke-width:1.0;" x1="1051" x2="1043" y1="436.99" y2="436.99"/><line style="stroke:#181818;stroke-width:1.0;" x1="1047" x2="1047" y1="435.99" y2="443.99"/></g><!--link BookAuthorRelationship to Author--><g id="link_BookAuthorRelationship_Author"><path codeLine="89" d="M1410.49,303.23 C1422.03,303.23 1417.58,303.23 1429.12,303.23 " fill="none" id="BookAuthorRelationship-Author" style="stroke:#181818;stroke-width:1.0;"/><line style="stroke:#181818;stroke-width:1.0;" x1="1410.49" x2="1402.49" y1="303.23" y2="311.23"/><line style="stroke:#181818;stroke-width:1.0;" x1="1410.49" x2="1402.49" y1="303.23" y2="295.23"/><line style="stroke:#181818;stroke-width:1.0;" x1="1410.49" x2="1402.49" y1="303.23" y2="303.23"/><line style="stroke:#181818;stroke-width:1.0;" x1="1433.12" x2="1433.12" y1="299.23" y2="307.23"/><line style="stroke:#181818;stroke-width:1.0;" x1="1430.12" x2="1430.12" y1="299.23" y2="307.23"/><line style="stroke:#181818;stroke-width:1.0;" x1="1429.12" x2="1437.12" y1="303.23" y2="303.23"/></g><!--link BookStock to BookMaster--><g id="link_BookStock_BookMaster"><path codeLine="91" d="M756.3486,166.7345 C800.9086,181.2345 803.11,163.09 847,179.49 C885.93,194.03 918.8616,212.1269 952.4916,233.8669 " fill="none" id="BookStock-BookMaster" style="stroke:#181818;stroke-width:1.0;"/><line style="stroke:#181818;stroke-width:1.0;" x1="746.8772" x2="737.3752" y1="163.5265" y2="166.6429"/><line style="stroke:#181818;stroke-width:1.0;" x1="746.8772" x2="741.2248" y1="163.5265" y2="155.2771"/><line style="stroke:#181818;stroke-width:1.0;" x1="746.8772" x2="739.3" y1="163.5265" y2="160.96"/><ellipse cx="752.56" cy="165.4513" fill="none" rx="4" ry="4" style="stroke:#181818;stroke-width:1.0;"/><line style="stroke:#181818;stroke-width:1.0;" x1="958.0223" x2="953.6792" y1="232.6792" y2="239.3977"/><line style="stroke:#181818;stroke-width:1.0;" x1="955.5029" x2="951.1598" y1="231.0506" y2="237.769"/><line style="stroke:#181818;stroke-width:1.0;" x1="952.4916" x2="959.21" y1="233.8669" y2="238.21"/></g><!--link Lending to BookStock--><g id="link_Lending_BookStock"><path codeLine="92" d="M424.38,105.6 C463.89,105.6 477.4,105.6 516.92,105.6 " fill="none" id="Lending-BookStock" style="stroke:#181818;stroke-width:1.0;"/><line style="stroke:#181818;stroke-width:1.0;" x1="414.38" x2="406.38" y1="105.6" y2="111.6"/><line style="stroke:#181818;stroke-width:1.0;" x1="414.38" x2="406.38" y1="105.6" y2="99.6"/><line style="stroke:#181818;stroke-width:1.0;" x1="414.38" x2="406.38" y1="105.6" y2="105.6"/><ellipse cx="420.38" cy="105.6" fill="none" rx="4" ry="4" style="stroke:#181818;stroke-width:1.0;"/><line style="stroke:#181818;stroke-width:1.0;" x1="516.92" x2="524.92" y1="105.6" y2="99.6"/><line style="stroke:#181818;stroke-width:1.0;" x1="516.92" x2="524.92" y1="105.6" y2="111.6"/><line style="stroke:#181818;stroke-width:1.0;" x1="516.92" x2="524.92" y1="105.6" y2="105.6"/><line style="stroke:#181818;stroke-width:1.0;" x1="514.92" x2="514.92" y1="101.6" y2="109.6"/></g><!--reverse link LendingSet to Customer--><g id="link_LendingSet_Customer"><path codeLine="93" d="M139.158,400.6133 C128.928,420.7833 126.42,425.75 117.29,443.78 " fill="none" id="LendingSet-backto-Customer" style="stroke:#181818;stroke-width:1.0;"/><line style="stroke:#181818;stroke-width:1.0;" x1="143.6813" x2="141.9489" y1="391.6948" y2="381.846"/><line style="stroke:#181818;stroke-width:1.0;" x1="143.6813" x2="152.6511" y1="391.6948" y2="387.274"/><line style="stroke:#181818;stroke-width:1.0;" x1="143.6813" x2="147.3" y1="391.6948" y2="384.56"/><ellipse cx="140.9673" cy="397.0459" fill="none" rx="4" ry="4" style="stroke:#181818;stroke-width:1.0;"/></g><!--link BookStock to BookStockStatus--><g id="link_BookStock_BookStockStatus"><path codeLine="95" d="M632,180.66 C632,212.61 632,225.88 632,254.62 " fill="none" id="BookStock-BookStockStatus" style="stroke:#181818;stroke-width:1.0;"/><line style="stroke:#181818;stroke-width:1.0;" x1="632" x2="626" y1="170.66" y2="162.66"/><line style="stroke:#181818;stroke-width:1.0;" x1="632" x2="638" y1="170.66" y2="162.66"/><line style="stroke:#181818;stroke-width:1.0;" x1="632" x2="632" y1="170.66" y2="162.66"/><ellipse cx="632" cy="176.66" fill="none" rx="4" ry="4" style="stroke:#181818;stroke-width:1.0;"/><line style="stroke:#181818;stroke-width:1.0;" x1="636" x2="628" y1="258.62" y2="258.62"/><line style="stroke:#181818;stroke-width:1.0;" x1="636" x2="628" y1="255.62" y2="255.62"/><line style="stroke:#181818;stroke-width:1.0;" x1="632" x2="632" y1="254.62" y2="262.62"/></g><!--link Lending to LendingSet--><g id="link_Lending_LendingSet"><path codeLine="96" d="M247.5759,161.8148 C238.9859,182.0648 234.9861,191.496 225.2861,214.346 " fill="none" id="Lending-LendingSet" style="stroke:#181818;stroke-width:1.0;"/><line style="stroke:#181818;stroke-width:1.0;" x1="247.5759" x2="245.1764" y1="161.8148" y2="152.1069"/><line style="stroke:#181818;stroke-width:1.0;" x1="247.5759" x2="256.2236" y1="161.8148" y2="156.7931"/><line style="stroke:#181818;stroke-width:1.0;" x1="247.5759" x2="250.7" y1="161.8148" y2="154.45"/><line style="stroke:#181818;stroke-width:1.0;" x1="243.1125" x2="250.4772" y1="162.0939" y2="165.218"/><line style="stroke:#181818;stroke-width:1.0;" x1="227.405" x2="220.0411" y1="219.5911" y2="216.465"/><line style="stroke:#181818;stroke-width:1.0;" x1="228.5773" x2="221.2133" y1="216.8296" y2="213.7035"/><line style="stroke:#181818;stroke-width:1.0;" x1="225.2861" x2="222.16" y1="214.346" y2="221.71"/></g><!--link LendingStatus to LendingSet--><g id="link_LendingStatus_LendingSet"><path codeLine="97" d="M380.38,303.23 C368.95,303.23 357.51,303.23 346.08,303.23 " fill="none" id="LendingStatus-LendingSet" style="stroke:#181818;stroke-width:1.0;"/></g><!--link ???? to ????--><!--SRC=[dLHTRz9G6BxlhpZXYYth7rYCYLiqMLGI9RjIGqfx0WtGalRqOW6IjML8CfZ4c1cS2HYzKCcO7yHKdU7774hXoh_WeH_qq1GbDhquv_rutg_dFMMEBt0v21ApBvRzz8SpVEDq6WbGOHW0e8H4T0JsPBcGHZ9V8590lcqW2kw1PVrxbbXaH04axzpTTSsJeh2rvIjLn25D3NLfznvQb6199eTQN4JFTcrSYIl1m5MI4II982INTe5NZFtiQcR-sl5l4wjD13l0wO-cR-kF9VlYw_J2chzxZ_MXFUpPfrtdLHth0wnVuUCMxOEFszXuxem-sSs6tJh7UXVhtx7UnlefDWoilyH62-iViLx_VTsZojZNL98DLFwL_-88IvnOp722e41LZRJZ7fG4KSgjXIbw-emAqN8AlayQ8deMxg3KHMTNnkNsEh2BYKnGrWRd_IANW47LTDmG9qsn8P162E4LHDBa59GHE1IqI858KwIC03cXA4emL86bAfJ4i6ebtFzoQc9T1eIQlkxDkvtPjvEvVaPaunTsUpIrcbWVCmnnBmURHLZcV6x7RLPAuFT9oZbPETg48v9Moa8bPbVkSohw2yqEqdifa3nC7Jmul1sqcFWM0zoobYsAF8T4MQBxpVkfkREYKeqZoYqDvMLbewPIUNjU3s7HZQtcnV96JqpqXU5Sc43hWL99afzgKhNALjO4fyrgCijMgtJPp9gCQmixJ-u5yjvA0a3a8I8JRF52KGdNZg5sR15qkJyHi02DUXT3oAgh3f6OLQwpj8g9FFNiexme251wmaQeoZ3-g18tiDd0vZKspx4vi3ljcmbtJjjWOlt4nYLHCVwei370vWTizbsrFJwPzvkXhFO7]--></g></svg>
