<svg xmlns="http://www.w3.org/2000/svg" xmlns:xlink="http://www.w3.org/1999/xlink" contentStyleType="text/css" height="546px" preserveAspectRatio="none" style="width:1567px;height:546px;background:#FFFFFF;" version="1.1" viewBox="0 0 1567 546" width="1567px" zoomAndPan="magnify"><defs/><g><!--cluster ????--><g id="cluster_&#36024;&#20986;&#31649;&#29702;"><path d="M8.5,6 L65.4998,6 A3.75,3.75 0 0 1 67.9998,8.5 L74.9998,28.2969 L860.5,28.2969 A2.5,2.5 0 0 1 863,30.7969 L863,537.06 A2.5,2.5 0 0 1 860.5,539.56 L8.5,539.56 A2.5,2.5 0 0 1 6,537.06 L6,8.5 A2.5,2.5 0 0 1 8.5,6 " fill="none" style="stroke:#000000;stroke-width:1.5;"/><line style="stroke:#000000;stroke-width:1.5;" x1="6" x2="74.9998" y1="28.2969" y2="28.2969"/><text fill="#000000" font-family="sans-serif" font-size="14" font-weight="bold" lengthAdjust="spacing" textLength="55.9998" x="10" y="20.9951">&#36024;&#20986;&#31649;&#29702;</text></g><!--cluster ????--><g id="cluster_&#26360;&#31821;&#31649;&#29702;"><path d="M905.5,186.19 L962.4998,186.19 A3.75,3.75 0 0 1 964.9998,188.69 L971.9998,208.4869 L1557.5,208.4869 A2.5,2.5 0 0 1 1560,210.9869 L1560,537.06 A2.5,2.5 0 0 1 1557.5,539.56 L905.5,539.56 A2.5,2.5 0 0 1 903,537.06 L903,188.69 A2.5,2.5 0 0 1 905.5,186.19 " fill="none" style="stroke:#000000;stroke-width:1.5;"/><line style="stroke:#000000;stroke-width:1.5;" x1="903" x2="971.9998" y1="208.4869" y2="208.4869"/><text fill="#000000" font-family="sans-serif" font-size="14" font-weight="bold" lengthAdjust="spacing" textLength="55.9998" x="907" y="201.1851">&#26360;&#31821;&#31649;&#29702;</text></g><!--class BookStock--><g id="elem_BookStock"><rect codeLine="3" fill="#F1F1F1" height="113.1875" id="BookStock" rx="2.5" ry="2.5" style="stroke:#181818;stroke-width:0.5;" width="213.9473" x="525.03" y="49"/><ellipse cx="590.9592" cy="65" fill="#ADD1B2" rx="11" ry="11" style="stroke:#181818;stroke-width:1.0;"/><path d="M595.0686,71 L587.3498,71 L587.3498,58.6094 L595.0686,58.6094 L595.0686,60.7656 L589.8029,60.7656 L589.8029,63.4375 L594.5686,63.4375 L594.5686,65.5938 L589.8029,65.5938 L589.8029,68.8438 L595.0686,68.8438 L595.0686,71 Z " fill="#000000"/><text fill="#000000" font-family="sans-serif" font-size="14" lengthAdjust="spacing" textLength="73.5889" x="611.4592" y="69.8467">BookStock</text><line style="stroke:#181818;stroke-width:0.5;" x1="526.03" x2="737.9773" y1="81" y2="81"/><ellipse cx="536.03" cy="94.6484" fill="#000000" rx="3" ry="3" style="stroke:#000000;stroke-width:1.0;"/><text fill="#000000" font-family="sans-serif" font-size="14" lengthAdjust="spacing" textLength="12.7764" x="545.03" y="97.9951">id</text><line style="stroke:#181818;stroke-width:1.0;" x1="526.03" x2="737.9773" y1="105.2969" y2="105.2969"/><ellipse cx="536.03" cy="118.9453" fill="#000000" rx="3" ry="3" style="stroke:#000000;stroke-width:1.0;"/><text fill="#000000" font-family="sans-serif" font-size="14" lengthAdjust="spacing" textLength="154.2188" x="545.03" y="122.292">book_id (FK: Book(id))</text><ellipse cx="536.03" cy="135.2422" fill="#000000" rx="3" ry="3" style="stroke:#000000;stroke-width:1.0;"/><text fill="#000000" font-family="sans-serif" font-size="14" lengthAdjust="spacing" textLength="187.9473" x="545.03" y="138.5889">status (FK: BookStatus(id))</text><text fill="#000000" font-family="sans-serif" font-size="14" lengthAdjust="spacing" textLength="44.4541" x="545.03" y="154.8857">memo</text></g><!--class BookStockStatus--><g id="elem_BookStockStatus"><rect codeLine="11" fill="#F1F1F1" height="80.5938" id="BookStockStatus" rx="2.5" ry="2.5" style="stroke:#181818;stroke-width:0.5;" width="150.2002" x="556.9" y="253.63"/><ellipse cx="571.9" cy="269.63" fill="#ADD1B2" rx="11" ry="11" style="stroke:#181818;stroke-width:1.0;"/><path d="M576.0094,275.63 L568.2906,275.63 L568.2906,263.2394 L576.0094,263.2394 L576.0094,265.3956 L570.7438,265.3956 L570.7438,268.0675 L575.5094,268.0675 L575.5094,270.2237 L570.7438,270.2237 L570.7438,273.4737 L576.0094,273.4737 L576.0094,275.63 Z " fill="#000000"/><text fill="#000000" font-family="sans-serif" font-size="14" lengthAdjust="spacing" textLength="118.2002" x="585.9" y="274.4767">BookStockStatus</text><line style="stroke:#181818;stroke-width:0.5;" x1="557.9" x2="706.1002" y1="285.63" y2="285.63"/><ellipse cx="567.9" cy="299.2784" fill="#000000" rx="3" ry="3" style="stroke:#000000;stroke-width:1.0;"/><text fill="#000000" font-family="sans-serif" font-size="14" lengthAdjust="spacing" textLength="12.7764" x="576.9" y="302.6251">id</text><line style="stroke:#181818;stroke-width:1.0;" x1="557.9" x2="706.1002" y1="309.9269" y2="309.9269"/><ellipse cx="567.9" cy="323.5753" fill="#000000" rx="3" ry="3" style="stroke:#000000;stroke-width:1.0;"/><text fill="#000000" font-family="sans-serif" font-size="14" lengthAdjust="spacing" textLength="39.7031" x="576.9" y="326.922">name</text></g><g id="elem_GMN5"><path d="M433,446.98 L433,487.2456 A0,0 0 0 0 433,487.2456 L831.0003,487.2456 A0,0 0 0 0 831.0003,487.2456 L831.0003,456.98 L821.0003,446.98 L636,446.98 L632,334.63 L628,446.98 L433,446.98 A0,0 0 0 0 433,446.98 " fill="#FEFFDD" style="stroke:#181818;stroke-width:0.5;"/><path d="M821.0003,446.98 L821.0003,456.98 L831.0003,456.98 L821.0003,446.98 " fill="#FEFFDD" style="stroke:#181818;stroke-width:0.5;"/><text fill="#000000" font-family="sans-serif" font-size="13" lengthAdjust="spacing" textLength="146.5294" x="439" y="464.0469">&#36024;&#20986;&#21487;&#33021;, &#36024;&#20986;&#19981;&#21487;, &#30772;&#26820;</text><text fill="#000000" font-family="sans-serif" font-size="13" lengthAdjust="spacing" textLength="377.0003" x="439" y="479.1797">&#22259;&#26360;&#39208;&#12398;&#23455;&#21209;&#30340;&#12395;&#12399;&#12300;&#36024;&#20986;&#19981;&#21487;&#12301;&#12434;&#32048;&#20998;&#21270;&#12377;&#12409;&#12365;&#12363;&#12418;&#12375;&#12428;&#12394;&#12356;&#65311;</text></g><!--class Customer--><g id="elem_Customer"><rect codeLine="19" fill="#F1F1F1" height="96.8906" id="Customer" rx="2.5" ry="2.5" style="stroke:#181818;stroke-width:0.5;" width="126.9189" x="29.54" y="418.67"/><ellipse cx="56.6518" cy="434.67" fill="#ADD1B2" rx="11" ry="11" style="stroke:#181818;stroke-width:1.0;"/><path d="M60.7611,440.67 L53.0424,440.67 L53.0424,428.2794 L60.7611,428.2794 L60.7611,430.4356 L55.4955,430.4356 L55.4955,433.1075 L60.2611,433.1075 L60.2611,435.2637 L55.4955,435.2637 L55.4955,438.5137 L60.7611,438.5137 L60.7611,440.67 Z " fill="#000000"/><text fill="#000000" font-family="sans-serif" font-size="14" lengthAdjust="spacing" textLength="68.0039" x="73.3433" y="439.5167">Customer</text><line style="stroke:#181818;stroke-width:0.5;" x1="30.54" x2="155.4589" y1="450.67" y2="450.67"/><ellipse cx="40.54" cy="464.3184" fill="#000000" rx="3" ry="3" style="stroke:#000000;stroke-width:1.0;"/><text fill="#000000" font-family="sans-serif" font-size="14" lengthAdjust="spacing" textLength="12.7764" x="49.54" y="467.6651">id</text><line style="stroke:#181818;stroke-width:1.0;" x1="30.54" x2="155.4589" y1="474.9669" y2="474.9669"/><ellipse cx="40.54" cy="488.6153" fill="#000000" rx="3" ry="3" style="stroke:#000000;stroke-width:1.0;"/><text fill="#000000" font-family="sans-serif" font-size="14" lengthAdjust="spacing" textLength="39.7031" x="49.54" y="491.962">name</text><ellipse cx="40.54" cy="504.9122" fill="#000000" rx="3" ry="3" style="stroke:#000000;stroke-width:1.0;"/><text fill="#000000" font-family="sans-serif" font-size="14" lengthAdjust="spacing" textLength="100.9189" x="49.54" y="508.2589">email_address</text></g><!--class Lending--><g id="elem_Lending"><rect codeLine="26" fill="#F1F1F1" height="113.1875" id="Lending" rx="2.5" ry="2.5" style="stroke:#181818;stroke-width:0.5;" width="270.3711" x="135.81" y="49"/><ellipse cx="238.8344" cy="65" fill="#ADD1B2" rx="11" ry="11" style="stroke:#181818;stroke-width:1.0;"/><path d="M242.9438,71 L235.225,71 L235.225,58.6094 L242.9438,58.6094 L242.9438,60.7656 L237.6782,60.7656 L237.6782,63.4375 L242.4438,63.4375 L242.4438,65.5938 L237.6782,65.5938 L237.6782,68.8438 L242.9438,68.8438 L242.9438,71 Z " fill="#000000"/><text fill="#000000" font-family="sans-serif" font-size="14" lengthAdjust="spacing" textLength="55.8223" x="259.3344" y="69.8467">Lending</text><line style="stroke:#181818;stroke-width:0.5;" x1="136.81" x2="405.1811" y1="81" y2="81"/><ellipse cx="146.81" cy="94.6484" fill="#000000" rx="3" ry="3" style="stroke:#000000;stroke-width:1.0;"/><text fill="#000000" font-family="sans-serif" font-size="14" lengthAdjust="spacing" textLength="12.7764" x="155.81" y="97.9951">id</text><line style="stroke:#181818;stroke-width:1.0;" x1="136.81" x2="405.1811" y1="105.2969" y2="105.2969"/><ellipse cx="146.81" cy="118.9453" fill="#000000" rx="3" ry="3" style="stroke:#000000;stroke-width:1.0;"/><text fill="#000000" font-family="sans-serif" font-size="14" lengthAdjust="spacing" textLength="244.3711" x="155.81" y="122.292">lending_set_id (FK: LendingSet(id))</text><ellipse cx="146.81" cy="135.2422" fill="#000000" rx="3" ry="3" style="stroke:#000000;stroke-width:1.0;"/><text fill="#000000" font-family="sans-serif" font-size="14" lengthAdjust="spacing" textLength="219.1807" x="155.81" y="138.5889">customer_id (FK: Customer(id))</text><ellipse cx="146.81" cy="151.5391" fill="#000000" rx="3" ry="3" style="stroke:#000000;stroke-width:1.0;"/><text fill="#000000" font-family="sans-serif" font-size="14" lengthAdjust="spacing" textLength="237.1182" x="155.81" y="154.8857">book_stock_id (FK: BookStock(id))</text></g><!--class LendingSet--><g id="elem_LendingSet"><rect codeLine="34" fill="#F1F1F1" height="129.4844" id="LendingSet" rx="2.5" ry="2.5" style="stroke:#181818;stroke-width:0.5;" width="315.3311" x="30.33" y="229.19"/><ellipse cx="144.3398" cy="245.19" fill="#ADD1B2" rx="11" ry="11" style="stroke:#181818;stroke-width:1.0;"/><path d="M148.4491,251.19 L140.7304,251.19 L140.7304,238.7994 L148.4491,238.7994 L148.4491,240.9556 L143.1835,240.9556 L143.1835,243.6275 L147.9491,243.6275 L147.9491,245.7837 L143.1835,245.7837 L143.1835,249.0337 L148.4491,249.0337 L148.4491,251.19 Z " fill="#000000"/><text fill="#000000" font-family="sans-serif" font-size="14" lengthAdjust="spacing" textLength="78.8115" x="164.8398" y="250.0367">LendingSet</text><line style="stroke:#181818;stroke-width:0.5;" x1="31.33" x2="344.6611" y1="261.19" y2="261.19"/><ellipse cx="41.33" cy="274.8384" fill="#000000" rx="3" ry="3" style="stroke:#000000;stroke-width:1.0;"/><text fill="#000000" font-family="sans-serif" font-size="14" lengthAdjust="spacing" textLength="12.7764" x="50.33" y="278.1851">id</text><line style="stroke:#181818;stroke-width:1.0;" x1="31.33" x2="344.6611" y1="285.4869" y2="285.4869"/><ellipse cx="41.33" cy="299.1353" fill="#000000" rx="3" ry="3" style="stroke:#000000;stroke-width:1.0;"/><text fill="#000000" font-family="sans-serif" font-size="14" lengthAdjust="spacing" textLength="289.3311" x="50.33" y="302.482">LendingSetStatus (FK: LendingStatus(id))</text><ellipse cx="41.33" cy="315.4322" fill="#000000" rx="3" ry="3" style="stroke:#000000;stroke-width:1.0;"/><text fill="#000000" font-family="sans-serif" font-size="14" lengthAdjust="spacing" textLength="108.4385" x="50.33" y="318.7789">lend_start_date</text><ellipse cx="41.33" cy="331.7291" fill="#000000" rx="3" ry="3" style="stroke:#000000;stroke-width:1.0;"/><text fill="#000000" font-family="sans-serif" font-size="14" lengthAdjust="spacing" textLength="149.1602" x="50.33" y="335.0757">return_deadline_date</text><text fill="#000000" font-family="sans-serif" font-size="14" lengthAdjust="spacing" textLength="81.9287" x="50.33" y="351.3726">return_date</text></g><!--class LendingStatus--><g id="elem_LendingStatus"><rect codeLine="43" fill="#F1F1F1" height="80.5938" id="LendingStatus" rx="2.5" ry="2.5" style="stroke:#181818;stroke-width:0.5;" width="132.4336" x="380.78" y="253.63"/><ellipse cx="395.78" cy="269.63" fill="#ADD1B2" rx="11" ry="11" style="stroke:#181818;stroke-width:1.0;"/><path d="M399.8894,275.63 L392.1706,275.63 L392.1706,263.2394 L399.8894,263.2394 L399.8894,265.3956 L394.6238,265.3956 L394.6238,268.0675 L399.3894,268.0675 L399.3894,270.2237 L394.6238,270.2237 L394.6238,273.4737 L399.8894,273.4737 L399.8894,275.63 Z " fill="#000000"/><text fill="#000000" font-family="sans-serif" font-size="14" lengthAdjust="spacing" textLength="100.4336" x="409.78" y="274.4767">LendingStatus</text><line style="stroke:#181818;stroke-width:0.5;" x1="381.78" x2="512.2136" y1="285.63" y2="285.63"/><ellipse cx="391.78" cy="299.2784" fill="#000000" rx="3" ry="3" style="stroke:#000000;stroke-width:1.0;"/><text fill="#000000" font-family="sans-serif" font-size="14" lengthAdjust="spacing" textLength="12.7764" x="400.78" y="302.6251">id</text><line style="stroke:#181818;stroke-width:1.0;" x1="381.78" x2="512.2136" y1="309.9269" y2="309.9269"/><ellipse cx="391.78" cy="323.5753" fill="#000000" rx="3" ry="3" style="stroke:#000000;stroke-width:1.0;"/><text fill="#000000" font-family="sans-serif" font-size="14" lengthAdjust="spacing" textLength="39.7031" x="400.78" y="326.922">name</text></g><g id="elem_GMN12"><path d="M191.74,454.55 L191.74,479.6828 A0,0 0 0 0 191.74,479.6828 L398.2695,479.6828 A0,0 0 0 0 398.2695,479.6828 L398.2695,464.55 L388.2695,454.55 L309.57,454.55 L411.75,334.63 L301.57,454.55 L191.74,454.55 A0,0 0 0 0 191.74,454.55 " fill="#FEFFDD" style="stroke:#181818;stroke-width:0.5;"/><path d="M388.2695,454.55 L388.2695,464.55 L398.2695,464.55 L388.2695,454.55 " fill="#FEFFDD" style="stroke:#181818;stroke-width:0.5;"/><text fill="#000000" font-family="sans-serif" font-size="13" lengthAdjust="spacing" textLength="185.5295" x="197.74" y="471.6169">&#36024;&#20986;&#20013;, &#36024;&#20986;&#26399;&#38480;&#36229;&#36942;, &#36820;&#21364;&#28168;&#12415;</text></g><!--class NdcCategory--><g id="elem_NdcCategory"><rect codeLine="55" fill="#F1F1F1" height="96.8906" id="NdcCategory" rx="2.5" ry="2.5" style="stroke:#181818;stroke-width:0.5;" width="123.0068" x="985.5" y="418.67"/><ellipse cx="1000.5" cy="434.67" fill="#ADD1B2" rx="11" ry="11" style="stroke:#181818;stroke-width:1.0;"/><path d="M1004.6094,440.67 L996.8906,440.67 L996.8906,428.2794 L1004.6094,428.2794 L1004.6094,430.4356 L999.3438,430.4356 L999.3438,433.1075 L1004.1094,433.1075 L1004.1094,435.2637 L999.3438,435.2637 L999.3438,438.5137 L1004.6094,438.5137 L1004.6094,440.67 Z " fill="#000000"/><text fill="#000000" font-family="sans-serif" font-size="14" lengthAdjust="spacing" textLength="91.0068" x="1014.5" y="439.5167">NdcCategory</text><line style="stroke:#181818;stroke-width:0.5;" x1="986.5" x2="1107.5068" y1="450.67" y2="450.67"/><ellipse cx="996.5" cy="464.3184" fill="#000000" rx="3" ry="3" style="stroke:#000000;stroke-width:1.0;"/><text fill="#000000" font-family="sans-serif" font-size="14" lengthAdjust="spacing" textLength="12.7764" x="1005.5" y="467.6651">id</text><line style="stroke:#181818;stroke-width:1.0;" x1="986.5" x2="1107.5068" y1="474.9669" y2="474.9669"/><ellipse cx="996.5" cy="488.6153" fill="#000000" rx="3" ry="3" style="stroke:#000000;stroke-width:1.0;"/><text fill="#000000" font-family="sans-serif" font-size="14" lengthAdjust="spacing" textLength="39.7031" x="1005.5" y="491.962">name</text><ellipse cx="996.5" cy="504.9122" fill="#000000" rx="3" ry="3" style="stroke:#000000;stroke-width:1.0;"/><text fill="#000000" font-family="sans-serif" font-size="14" lengthAdjust="spacing" textLength="54.6396" x="1005.5" y="508.2589">number</text></g><!--class BookMaster--><g id="elem_BookMaster"><rect codeLine="62" fill="#F1F1F1" height="129.4844" id="BookMaster" rx="2.5" ry="2.5" style="stroke:#181818;stroke-width:0.5;" width="239.9033" x="927.05" y="229.19"/><ellipse cx="1001.425" cy="245.19" fill="#ADD1B2" rx="11" ry="11" style="stroke:#181818;stroke-width:1.0;"/><path d="M1005.5344,251.19 L997.8156,251.19 L997.8156,238.7994 L1005.5344,238.7994 L1005.5344,240.9556 L1000.2688,240.9556 L1000.2688,243.6275 L1005.0344,243.6275 L1005.0344,245.7837 L1000.2688,245.7837 L1000.2688,249.0337 L1005.5344,249.0337 L1005.5344,251.19 Z " fill="#000000"/><text fill="#000000" font-family="sans-serif" font-size="14" lengthAdjust="spacing" textLength="82.6533" x="1021.925" y="250.0367">BookMaster</text><line style="stroke:#181818;stroke-width:0.5;" x1="928.05" x2="1165.9533" y1="261.19" y2="261.19"/><ellipse cx="938.05" cy="274.8384" fill="#000000" rx="3" ry="3" style="stroke:#000000;stroke-width:1.0;"/><text fill="#000000" font-family="sans-serif" font-size="14" lengthAdjust="spacing" textLength="12.7764" x="947.05" y="278.1851">id</text><line style="stroke:#181818;stroke-width:1.0;" x1="928.05" x2="1165.9533" y1="285.4869" y2="285.4869"/><ellipse cx="938.05" cy="299.1353" fill="#000000" rx="3" ry="3" style="stroke:#000000;stroke-width:1.0;"/><text fill="#000000" font-family="sans-serif" font-size="14" lengthAdjust="spacing" textLength="103.4277" x="947.05" y="302.482">ISBN (UNIQUE)</text><ellipse cx="938.05" cy="315.4322" fill="#000000" rx="3" ry="3" style="stroke:#000000;stroke-width:1.0;"/><text fill="#000000" font-family="sans-serif" font-size="14" lengthAdjust="spacing" textLength="27.3711" x="947.05" y="318.7789">title</text><ellipse cx="938.05" cy="331.7291" fill="#000000" rx="3" ry="3" style="stroke:#000000;stroke-width:1.0;"/><text fill="#000000" font-family="sans-serif" font-size="14" lengthAdjust="spacing" textLength="116.0879" x="947.05" y="335.0757">publication_date</text><ellipse cx="938.05" cy="348.0259" fill="#000000" rx="3" ry="3" style="stroke:#000000;stroke-width:1.0;"/><text fill="#000000" font-family="sans-serif" font-size="14" lengthAdjust="spacing" textLength="213.9033" x="947.05" y="351.3726">category(FK: NdcCategory(id))</text></g><!--class Author--><g id="elem_Author"><rect codeLine="71" fill="#F1F1F1" height="80.5938" id="Author" rx="2.5" ry="2.5" style="stroke:#181818;stroke-width:0.5;" width="79.1338" x="1437.43" y="253.63"/><ellipse cx="1452.43" cy="269.63" fill="#ADD1B2" rx="11" ry="11" style="stroke:#181818;stroke-width:1.0;"/><path d="M1456.5394,275.63 L1448.8206,275.63 L1448.8206,263.2394 L1456.5394,263.2394 L1456.5394,265.3956 L1451.2738,265.3956 L1451.2738,268.0675 L1456.0394,268.0675 L1456.0394,270.2237 L1451.2738,270.2237 L1451.2738,273.4737 L1456.5394,273.4737 L1456.5394,275.63 Z " fill="#000000"/><text fill="#000000" font-family="sans-serif" font-size="14" lengthAdjust="spacing" textLength="47.1338" x="1466.43" y="274.4767">Author</text><line style="stroke:#181818;stroke-width:0.5;" x1="1438.43" x2="1515.5638" y1="285.63" y2="285.63"/><ellipse cx="1448.43" cy="299.2784" fill="#000000" rx="3" ry="3" style="stroke:#000000;stroke-width:1.0;"/><text fill="#000000" font-family="sans-serif" font-size="14" lengthAdjust="spacing" textLength="12.7764" x="1457.43" y="302.6251">id</text><line style="stroke:#181818;stroke-width:1.0;" x1="1438.43" x2="1515.5638" y1="309.9269" y2="309.9269"/><ellipse cx="1448.43" cy="323.5753" fill="#000000" rx="3" ry="3" style="stroke:#000000;stroke-width:1.0;"/><text fill="#000000" font-family="sans-serif" font-size="14" lengthAdjust="spacing" textLength="39.7031" x="1457.43" y="326.922">name</text></g><!--class BookAuthorRelationship--><g id="elem_BookAuthorRelationship"><rect codeLine="77" fill="#F1F1F1" height="96.8906" id="BookAuthorRelationship" rx="2.5" ry="2.5" style="stroke:#181818;stroke-width:0.5;" width="200.5469" x="1201.73" y="245.48"/><ellipse cx="1216.73" cy="261.48" fill="#ADD1B2" rx="11" ry="11" style="stroke:#181818;stroke-width:1.0;"/><path d="M1220.8394,267.48 L1213.1206,267.48 L1213.1206,255.0894 L1220.8394,255.0894 L1220.8394,257.2456 L1215.5738,257.2456 L1215.5738,259.9175 L1220.3394,259.9175 L1220.3394,262.0737 L1215.5738,262.0737 L1215.5738,265.3237 L1220.8394,265.3237 L1220.8394,267.48 Z " fill="#000000"/><text fill="#000000" font-family="sans-serif" font-size="14" lengthAdjust="spacing" textLength="168.5469" x="1230.73" y="266.3267">BookAuthorRelationship</text><line style="stroke:#181818;stroke-width:0.5;" x1="1202.73" x2="1401.2769" y1="277.48" y2="277.48"/><ellipse cx="1212.73" cy="291.1284" fill="#000000" rx="3" ry="3" style="stroke:#000000;stroke-width:1.0;"/><text fill="#000000" font-family="sans-serif" font-size="14" lengthAdjust="spacing" textLength="12.7764" x="1221.73" y="294.4751">id</text><line style="stroke:#181818;stroke-width:1.0;" x1="1202.73" x2="1401.2769" y1="301.7769" y2="301.7769"/><ellipse cx="1212.73" cy="315.4253" fill="#000000" rx="3" ry="3" style="stroke:#000000;stroke-width:1.0;"/><text fill="#000000" font-family="sans-serif" font-size="14" lengthAdjust="spacing" textLength="149.7686" x="1221.73" y="318.772">book_id (FK:Book(id))</text><ellipse cx="1212.73" cy="331.7222" fill="#000000" rx="3" ry="3" style="stroke:#000000;stroke-width:1.0;"/><text fill="#000000" font-family="sans-serif" font-size="14" lengthAdjust="spacing" textLength="174.0703" x="1221.73" y="335.0689">author_id (FK:Author(id))</text></g><!--class <?????>--><g id="elem_&lt;&#12486;&#12540;&#12502;&#12523;&#21517;&gt;"><rect codeLine="100" fill="#F1F1F1" height="96.8906" id="&lt;&#12486;&#12540;&#12502;&#12523;&#21517;&gt;" rx="2.5" ry="2.5" style="stroke:#181818;stroke-width:0.5;" width="125.4606" x="890.27" y="57.15"/><ellipse cx="905.27" cy="73.15" fill="#ADD1B2" rx="11" ry="11" style="stroke:#181818;stroke-width:1.0;"/><path d="M909.3794,79.15 L901.6606,79.15 L901.6606,66.7594 L909.3794,66.7594 L909.3794,68.9156 L904.1138,68.9156 L904.1138,71.5875 L908.8794,71.5875 L908.8794,73.7437 L904.1138,73.7437 L904.1138,76.9937 L909.3794,76.9937 L909.3794,79.15 Z " fill="#000000"/><text fill="#000000" font-family="sans-serif" font-size="14" lengthAdjust="spacing" textLength="93.4606" x="919.27" y="77.9967">&lt;&#12486;&#12540;&#12502;&#12523;&#21517;&gt;</text><line style="stroke:#181818;stroke-width:0.5;" x1="891.27" x2="1014.7306" y1="89.15" y2="89.15"/><ellipse cx="901.27" cy="102.7984" fill="#000000" rx="3" ry="3" style="stroke:#000000;stroke-width:1.0;"/><text fill="#000000" font-family="sans-serif" font-size="14" lengthAdjust="spacing" textLength="41.9998" x="910.27" y="106.1451">&#20027;&#12461;&#12540;</text><line style="stroke:#181818;stroke-width:1.0;" x1="891.27" x2="1014.7306" y1="113.4469" y2="113.4469"/><text fill="#000000" font-family="sans-serif" font-size="14" lengthAdjust="spacing" textLength="41.9998" x="910.27" y="130.442">&#12459;&#12521;&#12512;</text><ellipse cx="901.27" cy="143.3922" fill="#000000" rx="3" ry="3" style="stroke:#000000;stroke-width:1.0;"/><text fill="#000000" font-family="sans-serif" font-size="14" lengthAdjust="spacing" textLength="69.9997" x="910.27" y="146.7389">&#24517;&#38920;&#12459;&#12521;&#12512;</text></g><!--link BookMaster to BookAuthorRelationship--><g id="link_BookMaster_BookAuthorRelationship"><path codeLine="86" d="M1175.03,293.93 C1186.45,293.93 1181.88,293.93 1193.3,293.93 " fill="none" id="BookMaster-BookAuthorRelationship" style="stroke:#181818;stroke-width:1.0;"/><line style="stroke:#181818;stroke-width:1.0;" x1="1171.03" x2="1171.03" y1="297.93" y2="289.93"/><line style="stroke:#181818;stroke-width:1.0;" x1="1174.03" x2="1174.03" y1="297.93" y2="289.93"/><line style="stroke:#181818;stroke-width:1.0;" x1="1175.03" x2="1167.03" y1="293.93" y2="293.93"/><line style="stroke:#181818;stroke-width:1.0;" x1="1193.3" x2="1201.3" y1="293.93" y2="285.93"/><line style="stroke:#181818;stroke-width:1.0;" x1="1193.3" x2="1201.3" y1="293.93" y2="301.93"/><line style="stroke:#181818;stroke-width:1.0;" x1="1193.3" x2="1201.3" y1="293.93" y2="293.93"/></g><!--link BookMaster to NdcCategory--><g id="link_BookMaster_NdcCategory"><path codeLine="87" d="M1047,377.16 C1047,396.8 1047,392.04 1047,410.38 " fill="none" id="BookMaster-NdcCategory" style="stroke:#181818;stroke-width:1.0;"/><line style="stroke:#181818;stroke-width:1.0;" x1="1047" x2="1041" y1="367.16" y2="359.16"/><line style="stroke:#181818;stroke-width:1.0;" x1="1047" x2="1053" y1="367.16" y2="359.16"/><line style="stroke:#181818;stroke-width:1.0;" x1="1047" x2="1047" y1="367.16" y2="359.16"/><ellipse cx="1047" cy="373.16" fill="none" rx="4" ry="4" style="stroke:#181818;stroke-width:1.0;"/><line style="stroke:#181818;stroke-width:1.0;" x1="1051" x2="1043" y1="414.38" y2="414.38"/><line style="stroke:#181818;stroke-width:1.0;" x1="1051" x2="1043" y1="411.38" y2="411.38"/><line style="stroke:#181818;stroke-width:1.0;" x1="1047" x2="1047" y1="410.38" y2="418.38"/></g><!--link BookAuthorRelationship to Author--><g id="link_BookAuthorRelationship_Author"><path codeLine="88" d="M1410.49,293.93 C1422.03,293.93 1417.58,293.93 1429.12,293.93 " fill="none" id="BookAuthorRelationship-Author" style="stroke:#181818;stroke-width:1.0;"/><line style="stroke:#181818;stroke-width:1.0;" x1="1410.49" x2="1402.49" y1="293.93" y2="301.93"/><line style="stroke:#181818;stroke-width:1.0;" x1="1410.49" x2="1402.49" y1="293.93" y2="285.93"/><line style="stroke:#181818;stroke-width:1.0;" x1="1410.49" x2="1402.49" y1="293.93" y2="293.93"/><line style="stroke:#181818;stroke-width:1.0;" x1="1433.12" x2="1433.12" y1="289.93" y2="297.93"/><line style="stroke:#181818;stroke-width:1.0;" x1="1430.12" x2="1430.12" y1="289.93" y2="297.93"/><line style="stroke:#181818;stroke-width:1.0;" x1="1429.12" x2="1437.12" y1="293.93" y2="293.93"/></g><!--link BookStock to BookMaster--><g id="link_BookStock_BookMaster"><path codeLine="90" d="M756.5208,166.1816 C801.1908,178.5616 802.9,155.88 847,170.19 C887.69,183.38 921.9753,201.9899 956.1353,224.5599 " fill="none" id="BookStock-BookMaster" style="stroke:#181818;stroke-width:1.0;"/><line style="stroke:#181818;stroke-width:1.0;" x1="746.9259" x2="737.5595" y1="163.364" y2="166.8669"/><line style="stroke:#181818;stroke-width:1.0;" x1="746.9259" x2="740.9405" y1="163.364" y2="155.3531"/><line style="stroke:#181818;stroke-width:1.0;" x1="746.9259" x2="739.25" y1="163.364" y2="161.11"/><ellipse cx="752.6828" cy="165.0546" fill="none" rx="4" ry="4" style="stroke:#181818;stroke-width:1.0;"/><line style="stroke:#181818;stroke-width:1.0;" x1="961.6777" x2="957.2676" y1="223.4276" y2="230.1023"/><line style="stroke:#181818;stroke-width:1.0;" x1="959.1747" x2="954.7646" y1="221.7739" y2="228.4485"/><line style="stroke:#181818;stroke-width:1.0;" x1="956.1353" x2="962.81" y1="224.5599" y2="228.97"/></g><!--link Lending to BookStock--><g id="link_Lending_BookStock"><path codeLine="91" d="M424.38,105.59 C463.89,105.59 477.4,105.59 516.92,105.59 " fill="none" id="Lending-BookStock" style="stroke:#181818;stroke-width:1.0;"/><line style="stroke:#181818;stroke-width:1.0;" x1="414.38" x2="406.38" y1="105.59" y2="111.59"/><line style="stroke:#181818;stroke-width:1.0;" x1="414.38" x2="406.38" y1="105.59" y2="99.59"/><line style="stroke:#181818;stroke-width:1.0;" x1="414.38" x2="406.38" y1="105.59" y2="105.59"/><ellipse cx="420.38" cy="105.59" fill="none" rx="4" ry="4" style="stroke:#181818;stroke-width:1.0;"/><line style="stroke:#181818;stroke-width:1.0;" x1="516.92" x2="524.92" y1="105.59" y2="99.59"/><line style="stroke:#181818;stroke-width:1.0;" x1="516.92" x2="524.92" y1="105.59" y2="111.59"/><line style="stroke:#181818;stroke-width:1.0;" x1="516.92" x2="524.92" y1="105.59" y2="105.59"/><line style="stroke:#181818;stroke-width:1.0;" x1="514.92" x2="514.92" y1="101.59" y2="109.59"/></g><!--reverse link LendingSet to Customer--><g id="link_LendingSet_Customer"><path codeLine="92" d="M143.6252,374.8986 C132.7252,394.5386 129.67,400.04 119.49,418.38 " fill="none" id="LendingSet-backto-Customer" style="stroke:#181818;stroke-width:1.0;"/><line style="stroke:#181818;stroke-width:1.0;" x1="148.4779" x2="147.1138" y1="366.1549" y2="356.2484"/><line style="stroke:#181818;stroke-width:1.0;" x1="148.4779" x2="157.6062" y1="366.1549" y2="362.0716"/><line style="stroke:#181818;stroke-width:1.0;" x1="148.4779" x2="152.36" y1="366.1549" y2="359.16"/><ellipse cx="145.5663" cy="371.4011" fill="none" rx="4" ry="4" style="stroke:#181818;stroke-width:1.0;"/></g><!--link BookStock to BookStockStatus--><g id="link_BookStock_BookStockStatus"><path codeLine="94" d="M632,180.5 C632,209.76 632,218.9 632,245.33 " fill="none" id="BookStock-BookStockStatus" style="stroke:#181818;stroke-width:1.0;"/><line style="stroke:#181818;stroke-width:1.0;" x1="632" x2="626" y1="170.5" y2="162.5"/><line style="stroke:#181818;stroke-width:1.0;" x1="632" x2="638" y1="170.5" y2="162.5"/><line style="stroke:#181818;stroke-width:1.0;" x1="632" x2="632" y1="170.5" y2="162.5"/><ellipse cx="632" cy="176.5" fill="none" rx="4" ry="4" style="stroke:#181818;stroke-width:1.0;"/><line style="stroke:#181818;stroke-width:1.0;" x1="636" x2="628" y1="249.33" y2="249.33"/><line style="stroke:#181818;stroke-width:1.0;" x1="636" x2="628" y1="246.33" y2="246.33"/><line style="stroke:#181818;stroke-width:1.0;" x1="632" x2="632" y1="245.33" y2="253.33"/></g><!--link Lending to LendingSet--><g id="link_Lending_LendingSet"><path codeLine="95" d="M242.8447,169.8078 C233.5347,190.7078 229.3944,199.9919 219.7844,221.5719 " fill="none" id="Lending-LendingSet" style="stroke:#181818;stroke-width:1.0;"/><line style="stroke:#181818;stroke-width:1.0;" x1="242.8447" x2="240.6192" y1="169.8078" y2="160.0585"/><line style="stroke:#181818;stroke-width:1.0;" x1="242.8447" x2="251.5808" y1="169.8078" y2="164.9415"/><line style="stroke:#181818;stroke-width:1.0;" x1="242.8447" x2="246.1" y1="169.8078" y2="162.5"/><line style="stroke:#181818;stroke-width:1.0;" x1="238.377" x2="245.6848" y1="170.0071" y2="173.2623"/><line style="stroke:#181818;stroke-width:1.0;" x1="221.8113" x2="214.5032" y1="226.8532" y2="223.5987"/><line style="stroke:#181818;stroke-width:1.0;" x1="223.0317" x2="215.7236" y1="224.1126" y2="220.8582"/><line style="stroke:#181818;stroke-width:1.0;" x1="219.7844" x2="216.53" y1="221.5719" y2="228.88"/></g><!--link LendingStatus to LendingSet--><g id="link_LendingStatus_LendingSet"><path codeLine="96" d="M380.38,293.93 C368.95,293.93 357.51,293.93 346.08,293.93 " fill="none" id="LendingStatus-LendingSet" style="stroke:#181818;stroke-width:1.0;"/></g><!--link ???? to ????--><!--SRC=[fLHTQzDG6BxFhmYzwiRo1uO8RYWCjQ1bLohbD3cqeMbIafEBqHQMfgk5BRE8JEg4LlH2BUlyA19rqXzpcgQzyYzuckGqPwNLWY4NvxpF-_6Szwi4n0B8GJun-U9wJt_u_JT-gv7Wonp7yr15CZhWTpIja4QQM21IddoRl2m51q68xbcYaP4bFdddxdQWdfIbZOq8D110fX5ZwU0UQnHXKIE7whA8eUxAk2eeGcggQWWI8WXfnMq-V8ptx79Y_zgARYFN8O8jtkyEnc_hZrNl_Elut9s-Uu-jljVlUCTj_rKTMpriNUB34zO67pguzjmVVFAQ3U_a35jjR7t7beEjOrohOUibhfrWwoEswh-lEimpTas3i87wl_ZFZh08P2K394c7Xh6GZdjGbMGrjzAD4k8P0w9v5IARD4HiBSI8qLoDKcILWceQi_HVgsbG4AgtX1u9jP9Xh99cke5A5neYV11X07IKaG2YAT8XCdKr8q4WAR8AOuW2uNqPjVzgev5xGNje_BepRRSctuwcrYcH3Lzupc3iDh4rv3XYNgB3H1hB_-mi6wQK9EuIdZbDFrYdBLIpc8Nwal6u3mpqbyxQI- -a-EH-Qk_1_csQLMAhKBybCwl88a2ofh8f5YDgGNaOgilAVij4UKrVAwaCxz3g8LI2s4PUBgsrLHQN2WZSK3Hqof0aFvEaIaKehmZEgbKrGQXKs6TpAnXNPtgXF0mKhaVYWCXZZnmTt1bGZeU8OoPc5dG-XGlEg3Tc5SOkAm4SU-Akzxh0Gjp2TXSUvML9WkeJOQ5LEIugLU86jXlOliBs6RPxNikvcGZgjCcFt9-uTa4WBYeLhlMm_G7RtG3sXaVJRZEMLVy0]--></g></svg>
