<svg xmlns="http://www.w3.org/2000/svg" xmlns:xlink="http://www.w3.org/1999/xlink" contentStyleType="text/css" height="300px" preserveAspectRatio="none" style="width:617px;height:300px;background:#FFFFFF;" version="1.1" viewBox="0 0 617 300" width="617px" zoomAndPan="magnify"><defs/><g><!--class NdcCategory--><g id="elem_NdcCategory"><rect codeLine="1" fill="#F1F1F1" height="96.8906" id="NdcCategory" rx="2.5" ry="2.5" style="stroke:#181818;stroke-width:0.5;" width="123.0068" x="65.45" y="196.48"/><ellipse cx="80.45" cy="212.48" fill="#ADD1B2" rx="11" ry="11" style="stroke:#181818;stroke-width:1.0;"/><path d="M84.5594,218.48 L76.8406,218.48 L76.8406,206.0894 L84.5594,206.0894 L84.5594,208.2456 L79.2938,208.2456 L79.2938,210.9175 L84.0594,210.9175 L84.0594,213.0738 L79.2938,213.0738 L79.2938,216.3238 L84.5594,216.3238 L84.5594,218.48 Z " fill="#000000"/><text fill="#000000" font-family="sans-serif" font-size="14" lengthAdjust="spacing" textLength="91.0068" x="94.45" y="217.3267">NdcCategory</text><line style="stroke:#181818;stroke-width:0.5;" x1="66.45" x2="187.4568" y1="228.48" y2="228.48"/><ellipse cx="76.45" cy="242.1284" fill="#000000" rx="3" ry="3" style="stroke:#000000;stroke-width:1.0;"/><text fill="#000000" font-family="sans-serif" font-size="14" lengthAdjust="spacing" textLength="12.7764" x="85.45" y="245.4751">id</text><line style="stroke:#181818;stroke-width:1.0;" x1="66.45" x2="187.4568" y1="252.7769" y2="252.7769"/><ellipse cx="76.45" cy="266.4253" fill="#000000" rx="3" ry="3" style="stroke:#000000;stroke-width:1.0;"/><text fill="#000000" font-family="sans-serif" font-size="14" lengthAdjust="spacing" textLength="39.7031" x="85.45" y="269.772">name</text><ellipse cx="76.45" cy="282.7222" fill="#000000" rx="3" ry="3" style="stroke:#000000;stroke-width:1.0;"/><text fill="#000000" font-family="sans-serif" font-size="14" lengthAdjust="spacing" textLength="54.6396" x="85.45" y="286.0689">number</text></g><!--class Book--><g id="elem_Book"><rect codeLine="8" fill="#F1F1F1" height="129.4844" id="Book" rx="2.5" ry="2.5" style="stroke:#181818;stroke-width:0.5;" width="239.9033" x="7" y="7"/><ellipse cx="105.2803" cy="23" fill="#ADD1B2" rx="11" ry="11" style="stroke:#181818;stroke-width:1.0;"/><path d="M109.3896,29 L101.6709,29 L101.6709,16.6094 L109.3896,16.6094 L109.3896,18.7656 L104.124,18.7656 L104.124,21.4375 L108.8896,21.4375 L108.8896,23.5938 L104.124,23.5938 L104.124,26.8438 L109.3896,26.8438 L109.3896,29 Z " fill="#000000"/><text fill="#000000" font-family="sans-serif" font-size="14" lengthAdjust="spacing" textLength="34.8428" x="125.7803" y="27.8467">Book</text><line style="stroke:#181818;stroke-width:0.5;" x1="8" x2="245.9033" y1="39" y2="39"/><ellipse cx="18" cy="52.6484" fill="#000000" rx="3" ry="3" style="stroke:#000000;stroke-width:1.0;"/><text fill="#000000" font-family="sans-serif" font-size="14" lengthAdjust="spacing" textLength="12.7764" x="27" y="55.9951">id</text><line style="stroke:#181818;stroke-width:1.0;" x1="8" x2="245.9033" y1="63.2969" y2="63.2969"/><ellipse cx="18" cy="76.9453" fill="#000000" rx="3" ry="3" style="stroke:#000000;stroke-width:1.0;"/><text fill="#000000" font-family="sans-serif" font-size="14" lengthAdjust="spacing" textLength="33.0928" x="27" y="80.292">ISBN</text><ellipse cx="18" cy="93.2422" fill="#000000" rx="3" ry="3" style="stroke:#000000;stroke-width:1.0;"/><text fill="#000000" font-family="sans-serif" font-size="14" lengthAdjust="spacing" textLength="27.3711" x="27" y="96.5889">title</text><ellipse cx="18" cy="109.5391" fill="#000000" rx="3" ry="3" style="stroke:#000000;stroke-width:1.0;"/><text fill="#000000" font-family="sans-serif" font-size="14" lengthAdjust="spacing" textLength="116.0879" x="27" y="112.8857">publication_date</text><ellipse cx="18" cy="125.8359" fill="#000000" rx="3" ry="3" style="stroke:#000000;stroke-width:1.0;"/><text fill="#000000" font-family="sans-serif" font-size="14" lengthAdjust="spacing" textLength="213.9033" x="27" y="129.1826">category(FK: NdcCategory(id))</text></g><!--class Author--><g id="elem_Author"><rect codeLine="17" fill="#F1F1F1" height="96.8906" id="Author" rx="2.5" ry="2.5" style="stroke:#181818;stroke-width:0.5;" width="93.0605" x="517.42" y="23.29"/><ellipse cx="538.687" cy="39.29" fill="#ADD1B2" rx="11" ry="11" style="stroke:#181818;stroke-width:1.0;"/><path d="M542.7964,45.29 L535.0777,45.29 L535.0777,32.8994 L542.7964,32.8994 L542.7964,35.0556 L537.5308,35.0556 L537.5308,37.7275 L542.2964,37.7275 L542.2964,39.8838 L537.5308,39.8838 L537.5308,43.1338 L542.7964,43.1338 L542.7964,45.29 Z " fill="#000000"/><text fill="#000000" font-family="sans-serif" font-size="14" lengthAdjust="spacing" textLength="47.1338" x="554.0797" y="44.1367">Author</text><line style="stroke:#181818;stroke-width:0.5;" x1="518.42" x2="609.4805" y1="55.29" y2="55.29"/><ellipse cx="528.42" cy="68.9384" fill="#000000" rx="3" ry="3" style="stroke:#000000;stroke-width:1.0;"/><text fill="#000000" font-family="sans-serif" font-size="14" lengthAdjust="spacing" textLength="12.7764" x="537.42" y="72.2851">id</text><line style="stroke:#181818;stroke-width:1.0;" x1="518.42" x2="609.4805" y1="79.5869" y2="79.5869"/><ellipse cx="528.42" cy="93.2353" fill="#000000" rx="3" ry="3" style="stroke:#000000;stroke-width:1.0;"/><text fill="#000000" font-family="sans-serif" font-size="14" lengthAdjust="spacing" textLength="67.0605" x="537.42" y="96.582">firstname</text><ellipse cx="528.42" cy="109.5322" fill="#000000" rx="3" ry="3" style="stroke:#000000;stroke-width:1.0;"/><text fill="#000000" font-family="sans-serif" font-size="14" lengthAdjust="spacing" textLength="64.9551" x="537.42" y="112.8789">lastname</text></g><!--class BookAuthorRelationship--><g id="elem_BookAuthorRelationship"><rect codeLine="24" fill="#F1F1F1" height="96.8906" id="BookAuthorRelationship" rx="2.5" ry="2.5" style="stroke:#181818;stroke-width:0.5;" width="200.5469" x="281.68" y="23.29"/><ellipse cx="296.68" cy="39.29" fill="#ADD1B2" rx="11" ry="11" style="stroke:#181818;stroke-width:1.0;"/><path d="M300.7894,45.29 L293.0706,45.29 L293.0706,32.8994 L300.7894,32.8994 L300.7894,35.0556 L295.5238,35.0556 L295.5238,37.7275 L300.2894,37.7275 L300.2894,39.8838 L295.5238,39.8838 L295.5238,43.1338 L300.7894,43.1338 L300.7894,45.29 Z " fill="#000000"/><text fill="#000000" font-family="sans-serif" font-size="14" lengthAdjust="spacing" textLength="168.5469" x="310.68" y="44.1367">BookAuthorRelationship</text><line style="stroke:#181818;stroke-width:0.5;" x1="282.68" x2="481.2269" y1="55.29" y2="55.29"/><ellipse cx="292.68" cy="68.9384" fill="#000000" rx="3" ry="3" style="stroke:#000000;stroke-width:1.0;"/><text fill="#000000" font-family="sans-serif" font-size="14" lengthAdjust="spacing" textLength="12.7764" x="301.68" y="72.2851">id</text><line style="stroke:#181818;stroke-width:1.0;" x1="282.68" x2="481.2269" y1="79.5869" y2="79.5869"/><ellipse cx="292.68" cy="93.2353" fill="#000000" rx="3" ry="3" style="stroke:#000000;stroke-width:1.0;"/><text fill="#000000" font-family="sans-serif" font-size="14" lengthAdjust="spacing" textLength="149.7686" x="301.68" y="96.582">book_id (FK:Book(id))</text><ellipse cx="292.68" cy="109.5322" fill="#000000" rx="3" ry="3" style="stroke:#000000;stroke-width:1.0;"/><text fill="#000000" font-family="sans-serif" font-size="14" lengthAdjust="spacing" textLength="174.0703" x="301.68" y="112.8789">author_id (FK:Author(id))</text></g><!--link Book to BookAuthorRelationship--><g id="link_Book_BookAuthorRelationship"><path codeLine="31" d="M254.98,71.74 C266.4,71.74 261.83,71.74 273.25,71.74 " fill="none" id="Book-BookAuthorRelationship" style="stroke:#181818;stroke-width:1.0;"/><line style="stroke:#181818;stroke-width:1.0;" x1="250.98" x2="250.98" y1="75.74" y2="67.74"/><line style="stroke:#181818;stroke-width:1.0;" x1="253.98" x2="253.98" y1="75.74" y2="67.74"/><line style="stroke:#181818;stroke-width:1.0;" x1="254.98" x2="246.98" y1="71.74" y2="71.74"/><line style="stroke:#181818;stroke-width:1.0;" x1="273.25" x2="281.25" y1="71.74" y2="63.74"/><line style="stroke:#181818;stroke-width:1.0;" x1="273.25" x2="281.25" y1="71.74" y2="79.74"/><line style="stroke:#181818;stroke-width:1.0;" x1="273.25" x2="281.25" y1="71.74" y2="71.74"/></g><!--link Book to NdcCategory--><g id="link_Book_NdcCategory"><path codeLine="32" d="M126.95,154.97 C126.95,174.61 126.95,169.85 126.95,188.19 " fill="none" id="Book-NdcCategory" style="stroke:#181818;stroke-width:1.0;"/><line style="stroke:#181818;stroke-width:1.0;" x1="126.95" x2="120.95" y1="144.97" y2="136.97"/><line style="stroke:#181818;stroke-width:1.0;" x1="126.95" x2="132.95" y1="144.97" y2="136.97"/><line style="stroke:#181818;stroke-width:1.0;" x1="126.95" x2="126.95" y1="144.97" y2="136.97"/><ellipse cx="126.95" cy="150.97" fill="none" rx="4" ry="4" style="stroke:#181818;stroke-width:1.0;"/><line style="stroke:#181818;stroke-width:1.0;" x1="130.95" x2="122.95" y1="192.19" y2="192.19"/><line style="stroke:#181818;stroke-width:1.0;" x1="130.95" x2="122.95" y1="189.19" y2="189.19"/><line style="stroke:#181818;stroke-width:1.0;" x1="126.95" x2="126.95" y1="188.19" y2="196.19"/></g><!--link BookAuthorRelationship to Author--><g id="link_BookAuthorRelationship_Author"><path codeLine="33" d="M490.55,71.74 C502.1,71.74 497.66,71.74 509.21,71.74 " fill="none" id="BookAuthorRelationship-Author" style="stroke:#181818;stroke-width:1.0;"/><line style="stroke:#181818;stroke-width:1.0;" x1="490.55" x2="482.55" y1="71.74" y2="79.74"/><line style="stroke:#181818;stroke-width:1.0;" x1="490.55" x2="482.55" y1="71.74" y2="63.74"/><line style="stroke:#181818;stroke-width:1.0;" x1="490.55" x2="482.55" y1="71.74" y2="71.74"/><line style="stroke:#181818;stroke-width:1.0;" x1="513.21" x2="513.21" y1="67.74" y2="75.74"/><line style="stroke:#181818;stroke-width:1.0;" x1="510.21" x2="510.21" y1="67.74" y2="75.74"/><line style="stroke:#181818;stroke-width:1.0;" x1="509.21" x2="517.21" y1="71.74" y2="71.74"/></g><!--SRC=[TP113eCW44Ntd89bRS85kgjDcZHDNBG7C2YqJefY41T6l7k1iSOckcAO-N_-0zbOi0FDH7dXLhwr6UX8A3rI4FvWBDODhoKMVLr8GoP29FfIhJyRXjippMBXHGgjRLyeABa5tUJ2HyLcEMSUhlVJck408abMCUVULjfi1Bt0T7R1Kto-_0EY-o5LJEygQ3Ss5LwOWw019PWG8KnujFzck6m1Z1_W71jtab0mQSQSMx-Gx81DGOVzBm00]--></g></svg>
